# xmcd
#
# Track frame offsets:
# 150
# 13097
# 30565
# 46492
# 64745
# 81322
# 104112
# 121970
# 145060
# 164240
# 196365
#
# Disc length: 3146 seconds
#
# Revision: 5
# Processed by: cddbd v1.5.2PL0 Copyright (c) Steve Scherf et al.
# Submitted via: TinyPlayer 2.8
#
DISCID=a00c480b
DTITLE=Alanis Morissette - So-Called Chaos
DYEAR=2004
DGENRE=Alternative Rock
TTITLE0=Eight Easy Steps
TTITLE1=Out Is Through
TTITLE2=Excuses
TTITLE3=Doth I Protest Too Much
TTITLE4=Knees of My Bees
TTITLE5=So-Called Chaos
TTITLE6=Not All Me
TTITLE7=This Grudge
TTITLE8=Spineless
TTITLE9=Everything
TTITLE10=Data: Videos and website launcher
EXTD=Location:  - UPC: 093624877325 - Catalogue number: 9362 48773 2 - Label: Maverick - ASIN: B00021LGVO - Release Date: 2004 05 14 - Discogs: a102789,m28818 - MUSICBRAINZ_ALBUMID: 49aa17ae-ec23-3651-8714-960ea39c757e - AMG: p144717,r679859;
EXTT0=
EXTT1=
EXTT2=
EXTT3=
EXTT4=
EXTT5=
EXTT6=
EXTT7=
EXTT8=
EXTT9=
EXTT10=
PLAYORDER=
